Coordinates
version=1
nRows=9
nColumns=24
inDegrees=yes

Units are S.I. units (second, meters, Newtons, ...)
Angles are in degrees.

endheader
time	pelvis_tilt	pelvis_list	pelvis_rotation	pelvis_tx	pelvis_ty	pelvis_tz	hip_flexion_r	hip_adduction_r	hip_rotation_r	knee_angle_r	ankle_angle_r	subtalar_angle_r	mtp_angle_r	hip_flexion_l	hip_adduction_l	hip_rotation_l	knee_angle_l	ankle_angle_l	subtalar_angle_l	mtp_angle_l	lumbar_extension	lumbar_bending	lumbar_rotation
      3.21500000	     -9.09553016	      0.67089399	     -8.03982305	     -1.32213343	     -0.04022679	      0.65888261	     -8.21461905	     -1.06337411	     11.47488559	    -10.09565978	     11.93683341	      3.56519038	     12.28970419	     39.53168533	     -4.88339943	     -7.57065478	    -22.12312994	      3.22637095	      6.66615894	      0.60098491	      6.05208376	      3.66408478	      7.67905219
      3.22000000	     -9.11763831	      0.97449725	     -8.29756970	     -1.31450090	     -0.04124306	      0.65928711	     -8.28761447	     -1.46688774	     11.20600731	    -10.63605979	     11.89959729	      4.27039304	     13.01506155	     39.35188905	     -4.64461391	     -7.60910208	    -22.18879810	      3.22722210	      6.41619643	      0.42418071	      6.18811379	      3.21994921	      7.91220099
      3.22500000	     -9.24915620	      1.18268614	     -8.57512077	     -1.30690256	     -0.04232689	      0.65974050	     -8.23886285	     -1.71879753	     11.38757624	    -11.22639552	     11.71844387	      4.45046477	     13.20318819	     39.30238509	     -4.50751575	     -7.53159881	    -22.37924113	      3.08743144	      6.10046759	      0.40401512	      6.42451078	      2.89558530	      8.18037973
      3.23000000	     -9.32834007	      1.50897294	     -8.80242603	     -1.29912719	     -0.04335625	      0.66007517	     -8.16265719	     -2.13370900	     11.08423850	    -11.92111544	     11.59841190	      5.19077343	     14.01642579	     39.19583015	     -4.21762464	     -7.57736040	    -22.61317734	      2.75047174	      5.71277997	      0.69735773	      6.64764644	      2.42912619	      8.34492910
      3.23500000	     -9.44459878	      1.80849797	     -8.98013049	     -1.29134693	     -0.04438827	      0.66036953	     -8.02121488	     -2.49586546	     10.85606916	    -12.66721705	     11.33553978	      5.71429136	     14.91580738	     39.15050059	     -3.91770428	     -7.49091387	    -22.91918390	      2.15639172	      5.31308304	      1.54247853	      6.90494729	      1.98628822	      8.48742588
      3.24000000	     -9.57876749	      2.10524627	     -9.12654571	     -1.28358251	     -0.04537487	      0.66064570	     -7.80939211	     -2.84404392	     10.61585227	    -13.50010086	     11.00082287	      6.23940486	     15.78661241	     39.14781763	     -3.60180837	     -7.33233032	    -23.27428662	      1.26335568	      4.89398693	      3.06388845	      7.17655070	      1.54108654	      8.61021175
      3.24500000	     -9.67570211	      2.38638203	     -9.25763391	     -1.27588004	     -0.04623466	      0.66108927	     -7.61067728	     -3.14022094	     10.60145425	    -14.37236070	     10.44781809	      6.33832240	     16.77127060	     39.13287260	     -3.31454560	     -7.19926475	    -23.64504784	     -0.08738477	      4.46181976	      5.96592916	      7.39425574	      1.07170087	      8.68588419
      3.25000000	     -9.85757307	      2.74382634	     -9.28363558	     -1.26819030	     -0.04717816	      0.66113342	     -7.19260380	     -3.53764719	     10.19733378	    -15.49162153	     10.16144504	      7.11541318	     17.23318263	     39.29086644	     -2.83746609	     -6.75973659	    -24.20707712	     -0.84139387	      4.00794733	      6.74322348	      7.70744586	      0.55652586	      8.68837302
      3.25500000	     -9.99257214	      3.17249534	     -9.19735036	     -1.26038440	     -0.04798777	      0.66124362	     -6.80818939	     -4.00346794	      9.66549553	    -16.60441361	      9.59057648	      7.70801432	     18.45958448	     39.42962752	     -2.24497726	     -6.28339768	    -24.74970201	     -1.94537033	      3.56615055	      8.82366677	      7.99648036	     -0.10072173	      8.52970639
